<svg width="30" height="30" viewBox="0 0 45 45" fill="#F2DCBB" xmlns="http://www.w3.org/2000/svg">
<path d="M0.522132 3.04415C-0.174044 2.34798 -0.174044 1.21894 0.522132 0.522404C1.21831 -0.174135 2.34735 -0.174135 3.04389 0.522404L22.4998 19.9782L41.9557 0.522404C42.6519 -0.174135 43.781 -0.174135 44.4779 0.522404C45.174 1.21858 45.174 2.34798 44.4779 3.04415L25.0212 22.4996L44.4775 41.9558C45.1737 42.652 45.1737 43.7811 44.4775 44.4776C43.781 45.1741 42.6519 45.1741 41.9554 44.4776L22.4994 25.0217L3.04389 44.4776C2.34772 45.1741 1.21867 45.1741 0.522132 44.4776C-0.174044 43.7814 -0.174044 42.6524 0.522132 41.9558L19.9781 22.4996L0.522132 3.04415Z"/>
</svg>
