<svg width="35" height="35" viewBox="0 0 54 54" fill="#F2DCBB" xmlns="http://www.w3.org/2000/svg">
<path d="M53.7412 36.4454L47.6035 15.3686C46.2928 10.86 43.437 6.89863 39.4905 4.11496C35.544 1.3313 30.7337 -0.114701 25.8251 0.00711188C20.9164 0.128925 16.1916 1.81155 12.4026 4.78718C8.61354 7.76282 5.97804 11.8605 4.91553 16.428L0.168228 36.7827C-0.0614816 37.7689 -0.0558786 38.7915 0.184624 39.7753C0.425127 40.7591 0.894392 41.6789 1.5578 42.4668C2.2212 43.2547 3.06182 43.8907 4.01763 44.3278C4.97345 44.7648 6.02006 44.9919 7.08026 44.9921H15.5952C16.137 47.5343 17.5846 49.8199 19.6927 51.4615C21.8008 53.1032 24.4398 54 27.1624 54C29.8851 54 32.5241 53.1032 34.6322 51.4615C36.7403 49.8199 38.1879 47.5343 38.7297 44.9921H46.9212C48.0121 44.9917 49.0881 44.7511 50.0654 44.2892C51.0426 43.8273 51.8946 43.1565 52.555 42.3292C53.2154 41.502 53.6662 40.5405 53.8724 39.5199C54.0785 38.4993 54.0321 37.4471 53.7412 36.4454ZM27.1624 49.4904C25.7029 49.4847 24.2809 49.0494 23.091 48.2442C21.9011 47.439 21.0013 46.3032 20.5148 44.9921H33.8101C33.3236 46.3032 32.4238 47.439 31.2339 48.2442C30.0439 49.0494 28.622 49.4847 27.1624 49.4904ZM48.798 39.6054C48.5777 39.8836 48.2922 40.1088 47.9643 40.2631C47.6364 40.4174 47.2751 40.4964 46.9094 40.4938H7.08026C6.72678 40.4938 6.37782 40.4181 6.05915 40.2724C5.74047 40.1266 5.46022 39.9146 5.23907 39.6518C5.01792 39.3891 4.86152 39.0824 4.78141 38.7544C4.70131 38.4264 4.69954 38.0854 4.77625 37.7566L9.52355 17.4018C10.3601 13.8172 12.4303 10.6018 15.405 8.2668C18.3798 5.93184 22.0885 4.61131 25.9414 4.51515C29.7944 4.41898 33.5705 5.55269 36.6696 7.73605C39.7686 9.91941 42.0127 13.0271 43.045 16.5652L49.1827 37.6419C49.283 37.9752 49.3004 38.3261 49.2336 38.6669C49.1668 39.0077 49.0176 39.329 48.798 39.6054Z"/>
</svg>
