<svg width="100" height="100" viewBox="0 0 100 100" fill="none" xmlns="http://www.w3.org/2000/svg">
<circle cx="50" cy="50" r="47.5" stroke="#F2DCBB" stroke-width="5"/>
<g clip-path="url(#clip0_160_6)">
<path fill-rule="evenodd" clip-rule="evenodd" d="M35.3538 72.4804V56.5956H42.6198C45.6963 57.1379 48.7728 58.7814 51.8451 60.6878H57.4733C60.0124 60.838 61.3623 63.3909 58.8783 65.0636C56.9063 66.4944 54.2995 66.411 51.625 66.1732C49.7799 66.0856 49.7038 68.5259 51.625 68.5343C52.2936 68.5885 53.0173 68.43 53.652 68.43C56.9867 68.43 59.7331 67.8001 61.4131 65.2013L62.2594 63.2616L70.6468 59.1652C74.8405 57.8053 77.8408 62.1269 74.7305 65.1387C68.8852 69.3501 62.6328 72.9829 56.0641 75.9845C51.4346 78.7585 46.8092 78.6625 42.1882 75.9845L35.3538 72.4804ZM52.7464 31.6838C54.9639 29.4103 56.5127 27.4414 59.9404 27.0535C66.3177 26.3443 72.2422 32.8101 68.9964 39.1757L68.9372 39.2883H67.6676V36.6269C67.6646 35.7362 67.3041 34.8828 66.6647 34.2534C66.3478 33.9391 65.9705 33.6901 65.5549 33.5211C65.1393 33.3521 64.6937 33.2664 64.2441 33.2689H60.554C60.1049 33.2698 59.6603 33.358 59.2457 33.5283C58.8311 33.6987 58.4546 33.9479 58.1377 34.2617C57.8199 34.5743 57.5678 34.9455 57.3957 35.3542C57.2236 35.763 57.1349 36.2011 57.1348 36.6436V39.3008H54.4349C53.5272 39.3042 52.6581 39.6629 52.0186 40.2978C51.7006 40.6102 51.4483 40.9814 51.2762 41.3902C51.1041 41.7989 51.0155 42.2371 51.0156 42.6797V46.3214C51.0156 46.7645 51.1042 47.2034 51.2762 47.6128C51.4483 48.0222 51.7004 48.3943 52.0183 48.7076C52.3362 49.021 52.7137 49.2696 53.129 49.4392C53.5444 49.6088 53.9895 49.696 54.4391 49.696H57.1348V52.0321L52.7507 56.2953L48.7728 52.5201C43.9867 47.9774 36.1833 42.2625 35.9251 35.1753C35.7474 30.2154 39.7168 27.0368 44.2871 27.091C48.3708 27.1453 50.0889 29.1475 52.7507 31.6796L52.7464 31.6838ZM24 55.0647H33.1702V74.0906H24V55.0647Z" fill="#F2DCBB"/>
<path fill-rule="evenodd" clip-rule="evenodd" d="M60.5537 35.3917H64.2438C64.5805 35.3917 64.9034 35.5235 65.1415 35.7582C65.3796 35.9929 65.5133 36.3112 65.5133 36.6431V41.4403H70.3799C70.7166 41.4403 71.0395 41.5721 71.2776 41.8068C71.5157 42.0415 71.6494 42.3598 71.6494 42.6917V46.3292C71.6494 46.6611 71.5157 46.9794 71.2776 47.2141C71.0395 47.4488 70.7166 47.5806 70.3799 47.5806H65.4964V52.2276C65.4964 52.5595 65.3627 52.8778 65.1246 53.1125C64.8865 53.3472 64.5636 53.479 64.2269 53.479H60.5537C60.217 53.479 59.8941 53.3472 59.656 53.1125C59.4179 52.8778 59.2842 52.5595 59.2842 52.2276V47.5347H54.4346C54.0979 47.5347 53.775 47.4029 53.5369 47.1682C53.2988 46.9335 53.165 46.6152 53.165 46.2833V42.6583C53.165 42.3264 53.2988 42.0081 53.5369 41.7734C53.775 41.5387 54.0979 41.4069 54.4346 41.4069H59.3011V36.6264C59.3011 36.2945 59.4349 35.9762 59.6729 35.7415C59.911 35.5068 60.2339 35.375 60.5706 35.375L60.5537 35.3917Z" fill="#F2DCBB"/>
</g>
<defs>
<clipPath id="clip0_160_6">
<rect width="52" height="51" fill="white" transform="translate(24 27)"/>
</clipPath>
</defs>
</svg>
