<svg width="100" height="100" viewBox="0 0 100 100" fill="none" xmlns="http://www.w3.org/2000/svg">
<g clip-path="url(#clip0_166_9)">
<path d="M71.5923 34.4074C71.5832 34.327 71.5695 34.242 71.5695 34.1526C71.5695 34.0676 71.5741 33.9826 71.5923 33.8977V28.3125C67.6001 27.9413 63.4849 28.3706 59.8892 29.7077C56.5304 30.9598 53.632 33.0123 51.7498 35.9591V67.7754C54.6802 65.857 57.6743 64.2785 60.7505 63.2053C64.255 61.98 67.8599 61.3987 71.5923 61.6894V34.4074ZM48.3 67.4445V35.9055C46.4907 32.7753 43.5649 30.6825 40.2655 29.4394C36.5239 28.0353 32.3175 27.7178 28.6535 28.2275L28.4575 61.7877C32.4543 61.6447 36.369 62.1455 40.0467 63.326C42.9771 64.2606 45.7524 65.6334 48.3 67.4445Z" fill="#F2DCBB"/>
<path d="M25.0169 61.3614L25.1764 33.7754H22V68.8783C26.3613 67.7738 30.7363 67.0718 35.1478 67.0405C39.2174 67.0181 43.2871 67.5726 47.3659 68.9275C44.832 66.9153 42.0065 65.4307 38.9896 64.4692C35.1934 63.2529 31.0872 62.8505 26.8763 63.2037C25.9238 63.2798 25.0944 62.5866 25.0124 61.6565C25.0033 61.5537 25.0033 61.4553 25.0169 61.3614ZM53.4225 68.6682C57.237 67.4921 61.0423 67.0092 64.8522 67.0315C69.2591 67.0539 73.6387 67.7649 78 68.8694V33.7754H75.0469V61.5134C75.0469 62.448 74.2721 63.2082 73.3197 63.2082C73.1829 63.2082 73.0508 63.1948 72.9232 63.1635C69.1452 62.5822 65.4857 63.0651 61.9128 64.3127C59.0326 65.3189 56.207 66.8258 53.4225 68.6682Z" fill="#F2DCBB"/>
</g>
<circle cx="50" cy="50" r="47.5" stroke="#F2DCBB" stroke-width="5"/>
<defs>
<clipPath id="clip0_166_9">
<rect width="56" height="43" fill="white" transform="translate(22 28)"/>
</clipPath>
</defs>
</svg>
