<svg width="100" height="100" viewBox="0 0 100 100" fill="none" xmlns="http://www.w3.org/2000/svg">
<circle cx="50" cy="50" r="47.5" stroke="#F2DCBB" stroke-width="5"/>
<g clip-path="url(#clip0_179_8)">
<path d="M33.727 56.8116L31.1479 62.7662C31.0877 62.9061 30.988 63.026 30.8605 63.1115C30.7331 63.197 30.5834 63.2445 30.4293 63.2484L23.9411 63.8233L28.8871 68.0821C29.1168 68.2806 29.2043 68.5805 29.1409 68.8556L27.6796 75.1683L33.3136 71.8458C33.5761 71.6905 33.8933 71.7013 34.1383 71.8458L39.7744 75.1683L39.1324 72.4003C39.6661 72.4596 40.2163 72.4208 40.7511 72.2762L41.4818 75.438C41.5026 75.575 41.5026 75.7163 41.4796 75.8576C41.4516 76.0278 41.3915 76.1914 41.3024 76.3398C41.1155 76.6479 40.8122 76.8702 40.4591 76.9579C40.1211 77.042 39.7482 76.9978 39.4211 76.8058L33.7259 73.4477L28.0799 76.7788C27.9574 76.8576 27.8196 76.918 27.6719 76.9547L27.5691 76.9795C27.4116 77.0075 27.2421 77.0075 27.0715 76.9752L27.0168 76.9654C26.6515 76.8813 26.3529 76.6591 26.1658 76.3657C25.9767 76.0692 25.9113 75.712 25.9832 75.3689L27.4674 68.9624L22.4711 64.6593C22.3398 64.5461 22.2283 64.4058 22.1495 64.2516C22.076 64.1099 22.0282 63.9565 22.0084 63.7985L22.003 63.7284C21.9789 63.3713 22.1025 63.0326 22.3245 62.7716C22.5444 62.5127 22.8605 62.3347 23.2214 62.2948L29.8573 61.7112L32.4582 55.7016C32.5273 55.5396 32.6276 55.3923 32.7536 55.2679C32.8564 55.1644 32.9789 55.077 33.1156 55.0091C33.1648 54.9832 33.2151 54.9616 33.2687 54.9454C33.5925 54.8311 33.9381 54.8472 34.2378 54.9659C34.5386 55.0856 34.7978 55.31 34.9531 55.6142L37.0116 60.3617L36.4133 62.9431C36.3695 62.8891 36.3345 62.8298 36.3072 62.7662L33.727 56.8116ZM26.4775 39.3729C25.8541 39.114 25.561 38.4064 25.8235 37.7915C26.086 37.1766 26.8046 36.8875 27.428 37.1464L32.5392 39.2823C33.1626 39.5412 33.4558 40.2499 33.1932 40.8637C32.9307 41.4786 32.2121 41.7677 31.5887 41.5088L26.4775 39.3729ZM31.6751 31.5155C31.1982 31.0419 31.2004 30.276 31.6806 29.8057C32.1607 29.3354 32.9373 29.3375 33.4142 29.8111L37.3189 33.7031C37.7958 34.1767 37.7936 34.9426 37.3135 35.4129C36.8333 35.8832 36.0567 35.8811 35.5798 35.4075L31.6751 31.5155ZM39.5119 26.193C39.2549 25.576 39.5535 24.8694 40.1791 24.6159C40.8058 24.3624 41.5212 24.6569 41.7793 25.274L43.8902 30.3386C44.1473 30.9556 43.8476 31.6622 43.222 31.9157C42.5963 32.1692 41.8799 31.8747 41.6229 31.2577L39.5119 26.193ZM72.572 37.1464C73.1954 36.8875 73.914 37.1766 74.1765 37.7915C74.439 38.4064 74.1459 39.114 73.5225 39.3729L68.4113 41.5088C67.7879 41.7677 67.0693 41.4786 66.8068 40.8637C66.5442 40.2499 66.8374 39.5412 67.4608 39.2823L72.572 37.1464ZM66.5858 29.8111C67.0627 29.3375 67.8393 29.3354 68.3194 29.8057C68.7996 30.276 68.8018 31.0419 68.3249 31.5155L64.4202 35.4075C63.9433 35.8811 63.1667 35.8832 62.6865 35.4129C62.2064 34.9426 62.2042 34.1767 62.6811 33.7031L66.5858 29.8111ZM58.2207 25.274C58.4788 24.6569 59.1942 24.3624 59.8209 24.6159C60.4465 24.8694 60.7451 25.576 60.4881 26.193L58.3771 31.2577C58.1201 31.8747 57.4037 32.1692 56.778 31.9157C56.1524 31.6622 55.8527 30.9556 56.1098 30.3386L58.2207 25.274ZM48.7323 24.2125C48.7323 23.5437 49.2825 23 49.9617 23C50.6399 23 51.1911 23.5437 51.1911 24.2125V29.6881C51.1911 30.3569 50.6399 30.9006 49.9617 30.9006C49.2825 30.9006 48.7323 30.3569 48.7323 29.6881V24.2125ZM51.388 37.6308L55.3212 46.7126L65.3356 47.5971C65.7392 47.637 66.0892 47.8323 66.3321 48.1171L66.3725 48.1699C66.588 48.4472 66.7061 48.7988 66.6788 49.1688L66.6744 49.2238C66.6547 49.4072 66.6 49.5787 66.5202 49.7341L66.4972 49.7751C66.425 49.9034 66.3332 50.0221 66.2271 50.1235L58.6079 56.6886L60.8523 66.3777C60.9322 66.7629 60.8512 67.1458 60.6522 67.4576C60.2081 68.1587 59.2598 68.3561 58.5653 67.9085L50 62.8568L41.3637 67.9484C41.0276 68.1412 40.6284 68.197 40.2513 68.1037C39.4561 67.9063 38.9782 67.121 39.1564 66.3422L41.3921 56.6886L33.8298 50.1753C33.6816 50.0475 33.5605 49.8922 33.4732 49.7182C33.3859 49.5442 33.3343 49.355 33.3212 49.1613C33.2961 48.788 33.4164 48.4008 33.6887 48.0944C33.8254 47.9412 33.9862 47.8215 34.159 47.7384C34.3373 47.6521 34.5342 47.6025 34.7333 47.5917L44.6788 46.7126L48.6219 37.606C48.7837 37.2316 49.0867 36.9544 49.4422 36.8142C50.21 36.5089 51.0686 36.8778 51.3825 37.6167L51.388 37.6308ZM67.5483 55.7178L70.1427 61.7112L76.7786 62.2948C77.1395 62.3347 77.4556 62.5138 77.6755 62.7716C77.8975 63.0326 78.0211 63.3713 77.997 63.7284L77.9916 63.7985C77.9718 63.9565 77.924 64.1099 77.8505 64.2516C77.7717 64.4058 77.6612 64.545 77.5289 64.6593L72.5326 68.9624L74.0168 75.3689C74.0912 75.7238 74.0168 76.0787 73.8342 76.3657C73.6482 76.658 73.3485 76.8813 72.9832 76.9654L72.9285 76.9752C72.7579 77.0075 72.5895 77.0075 72.4309 76.9795L72.3281 76.9547C72.1804 76.918 72.0426 76.8587 71.9201 76.7788L66.273 73.4477L60.5789 76.8058C60.4245 76.8973 60.2534 76.9578 60.0752 76.9839C59.8971 77.01 59.7155 77.0011 59.5409 76.9579C59.2018 76.8738 58.8923 76.6602 58.6976 76.3398C58.6057 76.1877 58.5467 76.0237 58.5193 75.8598L58.5182 75.8511C58.4953 75.7163 58.4963 75.5771 58.5182 75.4401L59.2499 72.273C59.3692 72.3054 59.4917 72.3323 59.6142 72.3539C60.0243 72.4272 60.4476 72.4445 60.8676 72.3981L60.2256 75.1683L65.8606 71.8458C66.1067 71.7013 66.4228 71.6905 66.6853 71.8458L72.3204 75.1683L70.858 68.8556C70.7957 68.5805 70.8832 68.2806 71.1129 68.0821L76.0589 63.8233L69.5707 63.2484C69.4166 63.2445 69.2669 63.197 69.1395 63.1115C69.0121 63.026 68.9123 62.9061 68.8521 62.7662L66.273 56.8116L63.695 62.7662C63.6666 62.832 63.6283 62.8935 63.5834 62.9485L62.9862 60.3692L65.0469 55.6142C65.2022 55.31 65.4614 55.0856 65.7622 54.9659C66.063 54.8472 66.4086 54.8311 66.7324 54.9454C66.786 54.9627 66.8374 54.9842 66.8855 55.0101C67.0233 55.0781 67.1436 55.1655 67.2464 55.2679C67.3733 55.3942 67.4739 55.543 67.5418 55.7016L67.5483 55.7178Z" fill="#F2DCBB"/>
</g>
<defs>
<clipPath id="clip0_179_8">
<rect width="56" height="54" fill="white" transform="translate(22 23)"/>
</clipPath>
</defs>
</svg>
