<svg width="100" height="100" viewBox="0 0 100 100" fill="none" xmlns="http://www.w3.org/2000/svg">
<g clip-path="url(#clip0_179_7)">
<path fill-rule="evenodd" clip-rule="evenodd" d="M45.7303 33.606C44.9467 31.3274 44.2455 29.0284 43.6475 26.6887C45.8664 24.288 54.4327 24.6054 56.8991 26.6521L54.6183 32.0029C55.8474 30.4119 56.2598 29.7608 56.9898 28.8738C57.2992 29.0732 57.5879 29.297 57.8601 29.5411C58.5076 30.1189 59.0891 30.7618 59.2046 31.6529C59.2789 32.2307 59.1139 32.8207 58.5901 33.4229L53.3563 39.4369C52.684 39.3271 52.0241 39.1684 51.3848 38.9446C51.6818 38.2569 52.0406 37.496 52.3376 36.8084L50.4321 38.8347C48.4483 38.4197 46.848 38.6679 45.3632 39.4451L40.0511 33.1585C39.7376 32.7841 39.5933 32.4098 39.5933 32.0354C39.5974 30.5177 41.8905 29.2034 43.099 28.707L45.7303 33.606ZM52.5355 44.9627L51.5003 40.2874C55.9381 41.1012 63.0527 50.0082 65.3499 54.0569C66.5212 56.124 67.5523 58.4026 68.3937 60.9457C70.0682 67.1062 68.4556 72.8679 61.6834 74.2107C57.4394 75.053 49.5247 75.11 45.0622 74.8821C40.2655 74.638 32.8375 74.6461 30.8991 69.7836C27.7687 61.9386 33.5057 52.5921 38.7354 46.871C39.4242 46.1183 40.1336 45.4184 40.8718 44.7673C42.7731 43.1153 44.8271 41.1581 47.2728 40.3403L44.9054 44.686L48.341 40.1938H50.1516L52.5355 44.9627ZM50.329 48.7997V49.6257C51.2157 49.7193 51.9787 49.8984 52.6139 50.1669C53.249 50.4395 53.8017 50.8464 54.276 51.3958C54.6513 51.8149 54.94 52.2462 55.1421 52.6856C55.3442 53.1292 55.4473 53.532 55.4473 53.9023C55.4473 54.3132 55.2947 54.6672 54.9936 54.9643C54.6884 55.2613 54.3214 55.4119 53.8883 55.4119C53.0717 55.4119 52.5438 54.9765 52.3046 54.1098C52.0282 53.0885 51.3724 52.4049 50.3249 52.0712V57.1778C51.3518 57.4545 52.1767 57.7109 52.783 57.9387C53.3934 58.1666 53.9419 58.4962 54.4204 58.9316C54.9359 59.3792 55.3318 59.9203 55.6123 60.5429C55.8886 61.1695 56.0289 61.8531 56.0289 62.5978C56.0289 63.5296 55.8103 64.4044 55.3607 65.2141C54.9153 66.032 54.2595 66.6912 53.3975 67.212C52.5314 67.7288 51.5086 68.0339 50.3207 68.1275V68.9617C50.3207 69.4418 50.2712 69.7958 50.1764 70.0156C50.0815 70.2353 49.8753 70.3451 49.5495 70.3451C49.2525 70.3451 49.0422 70.2556 48.9226 70.0766C48.803 69.8976 48.7452 69.6168 48.7452 69.2384V68.1479C47.776 68.0421 46.9264 67.8183 46.2005 67.4724C45.4746 67.1306 44.8683 66.7034 44.3816 66.1907C43.8991 65.6739 43.5362 65.145 43.3093 64.5956C43.0742 64.0422 42.9629 63.497 42.9629 62.968C42.9629 62.5774 43.1155 62.2234 43.4289 61.9101C43.7382 61.5968 44.1259 61.4381 44.5879 61.4381C44.9632 61.4381 45.2766 61.5235 45.5365 61.6944C45.7922 61.8653 45.9695 62.1095 46.0726 62.4187C46.2954 63.0901 46.4892 63.6028 46.6542 63.9609C46.8233 64.3149 47.0749 64.6445 47.4089 64.9374C47.743 65.2304 48.1884 65.4583 48.7452 65.6129V59.9081C47.6316 59.603 46.7078 59.2693 45.9613 58.895C45.2148 58.5206 44.6085 57.9957 44.1466 57.308C43.6846 56.6204 43.4495 55.7374 43.4495 54.6591C43.4495 53.2512 43.9032 52.0956 44.8106 51.2005C45.7179 50.3012 47.0295 49.7763 48.7452 49.6298V48.8282C48.7452 48.1406 49.0092 47.7988 49.5289 47.7988C50.065 47.7947 50.329 48.1283 50.329 48.7997ZM48.7494 56.718V52.0183C48.0523 52.2218 47.5079 52.4903 47.1202 52.8281C46.7284 53.1617 46.5346 53.6744 46.5346 54.3539C46.5346 54.9968 46.716 55.4892 47.0831 55.8188C47.4461 56.1484 48.0028 56.4495 48.7494 56.718ZM50.329 60.3598V65.739C51.1662 65.5763 51.8096 65.2467 52.2674 64.7462C52.7211 64.2416 52.9521 63.6638 52.9521 63.0006C52.9521 62.2885 52.7294 61.7392 52.2839 61.3486C51.8426 60.9579 51.191 60.6283 50.329 60.3598Z" fill="#F2DCBB"/>
</g>
<circle cx="50" cy="50" r="47.5" stroke="#F2DCBB" stroke-width="5"/>
<defs>
<clipPath id="clip0_179_7">
<rect width="39" height="50" fill="white" transform="translate(30 25)"/>
</clipPath>
</defs>
</svg>
