<svg width="100" height="100" viewBox="0 0 100 100" fill="none" xmlns="http://www.w3.org/2000/svg">
<circle cx="50" cy="50" r="47.5" stroke="#F2DCBB" stroke-width="5"/>
<path d="M30.7497 29H46.2833C46.7469 29.001 47.1912 29.1878 47.5186 29.5192C47.6818 29.6825 47.8115 29.8767 47.9004 30.0906C47.9893 30.3046 48.0355 30.5341 48.0365 30.7661V46.3745C48.0365 46.8429 47.8521 47.2921 47.524 47.6233C47.1959 47.9545 46.7508 48.1405 46.2868 48.1405H30.7497C30.5189 48.141 30.2904 48.0953 30.0772 48.0062C29.864 47.9171 29.6703 47.7863 29.5074 47.6213L29.4759 47.5825C29.1709 47.2555 29.0007 46.8236 29 46.3745V30.7661C29 30.2977 29.1843 29.8485 29.5125 29.5173C29.8406 29.1861 30.2856 29 30.7497 29ZM54.7167 52.8524H70.2433C70.706 52.857 71.1483 53.0445 71.4755 53.3747C71.8026 53.705 71.9884 54.1515 71.993 54.6184V70.2198C71.993 70.6882 71.8087 71.1374 71.4805 71.4686C71.1524 71.7998 70.7074 71.9859 70.2433 71.9859H54.7167C54.2599 71.9849 53.8216 71.8036 53.4954 71.4808L53.4639 71.4419C53.1528 71.1155 52.9797 70.6798 52.981 70.2269V54.6255C52.9806 54.3926 53.0259 54.1619 53.1141 53.9467C53.2024 53.7315 53.332 53.5361 53.4954 53.3716L53.5304 53.3363C53.855 53.0242 54.2859 52.8497 54.7342 52.8489L54.7167 52.8524ZM30.7497 52.8524H46.2833C46.7469 52.8534 47.1912 53.0402 47.5186 53.3716C47.6831 53.5346 47.8137 53.7292 47.9027 53.944C47.9916 54.1587 48.0371 54.3892 48.0365 54.622V70.2233C48.0365 70.6917 47.8521 71.1409 47.524 71.4721C47.1959 71.8033 46.7508 71.9894 46.2868 71.9894H30.7497C30.5189 71.9898 30.2904 71.9442 30.0772 71.855C29.864 71.7659 29.6703 71.6351 29.5074 71.4702L29.4759 71.4313C29.1717 71.1053 29.0016 70.6747 29 70.2269V54.6255C29 54.1571 29.1843 53.7079 29.5125 53.3767C29.8406 53.0455 30.2856 52.8595 30.7497 52.8595V52.8524ZM54.7167 29H70.2433C70.7074 29 71.1524 29.1861 71.4805 29.5173C71.8087 29.8485 71.993 30.2977 71.993 30.7661V46.3745C71.993 46.8429 71.8087 47.2921 71.4805 47.6233C71.1524 47.9545 70.7074 48.1405 70.2433 48.1405H54.7167C54.2527 48.1405 53.8076 47.9545 53.4795 47.6233C53.1514 47.2921 52.967 46.8429 52.967 46.3745V30.7661C52.9694 30.5333 53.0173 30.3034 53.1079 30.0894C53.1986 29.8754 53.3303 29.6817 53.4954 29.5192L53.5304 29.4874C53.8506 29.1795 54.2745 29.0053 54.7167 29Z" fill="#F2DCBB"/>
</svg>
