<svg width="100" height="100" viewBox="0 0 100 100" fill="none" xmlns="http://www.w3.org/2000/svg">
<circle cx="50" cy="50" r="47.5" stroke="#F2DCBB" stroke-width="5"/>
<g clip-path="url(#clip0_179_9)">
<path fill-rule="evenodd" clip-rule="evenodd" d="M31.5933 48.2674H40.5327C40.5327 48.2899 40.5327 48.3161 40.5327 48.3386V59.9961H29.2124V50.4496C29.2124 49.2498 30.2868 48.2674 31.5933 48.2674ZM34.6217 37.1873C32.6265 35.7887 31.3724 34.0189 30.9007 32.4441C30.5638 31.3117 30.59 30.2131 30.9831 29.2832C31.436 28.2183 32.3045 27.4421 33.5923 27.1309C35.3929 26.6922 38.193 27.3222 41.9028 29.8494C42.3745 30.1719 43.228 30.768 44.0666 31.3567C45.0586 32.0504 46.0207 32.7253 46.833 33.2878C47.6978 32.4366 48.8807 31.9079 50.1872 31.9079C51.6172 31.9079 52.8975 32.5378 53.7734 33.5315C54.6532 32.9241 55.7537 32.1516 56.8918 31.353C57.7303 30.7643 58.5876 30.1644 59.0555 29.8456C62.7616 27.3184 65.5654 26.6885 67.3661 27.1272C68.6538 27.4421 69.5223 28.2146 69.9753 29.2794C70.3683 30.2093 70.3945 31.3117 70.0576 32.4404C69.5859 34.0152 68.3319 35.785 66.3366 37.1836H71.3828C72.27 37.1836 72.9963 37.8585 72.9963 38.6834V44.1241C72.9963 44.949 72.27 45.6239 71.3828 45.6239H28.6134C27.7262 45.6239 27 44.949 27 44.1241V38.6872C27 37.8623 27.7262 37.1873 28.6134 37.1873H34.6217ZM59.0592 34.4576C58.0972 35.1326 57.1501 35.7925 56.2554 36.3812C57.1126 36.3137 58.0859 36.1899 59.1004 35.9912C59.6395 35.8862 60.1673 35.7662 60.6615 35.6275C61.1481 35.4925 61.646 35.3313 62.1514 35.1363L62.1589 35.1326C64.6183 34.1877 66.0483 32.6316 66.4302 31.3567C66.5163 31.0718 66.5387 30.8618 66.4976 30.7605C66.4938 30.7568 66.4938 30.753 66.4938 30.753V30.7568C66.4938 30.768 66.5013 30.8093 66.4826 30.8055C65.6066 30.5918 63.8996 31.1317 61.1968 32.9765C60.2347 33.6327 59.6432 34.0489 59.0592 34.4576ZM44.7105 36.3812C43.812 35.7962 42.8687 35.1326 41.9066 34.4576C41.3226 34.0489 40.7274 33.6327 39.7728 32.9803C37.07 31.1355 35.363 30.5956 34.487 30.8093C34.4683 30.813 34.4757 30.7718 34.4757 30.7605C34.4757 30.7605 34.4757 30.7605 34.472 30.768C34.4308 30.8693 34.4533 31.0755 34.5394 31.3642C34.9212 32.6391 36.3512 34.1952 38.8107 35.1401L38.8182 35.1438C39.3236 35.3388 39.8252 35.5 40.3081 35.635C40.806 35.7737 41.3301 35.8937 41.8691 35.9987C42.8799 36.1862 43.8532 36.3137 44.7105 36.3812ZM44.7853 48.2674H68.403C69.7132 48.2674 70.7839 49.2498 70.7839 50.4459V59.9961H44.7891V48.3424C44.7891 48.3161 44.7891 48.2936 44.7853 48.2674ZM70.7876 64.3156V70.8174C70.7876 72.0136 69.717 72.9959 68.4067 72.9959H44.7891V64.3156H70.7876ZM40.5327 72.9997H31.5933C30.2868 72.9997 29.2124 72.0211 29.2124 70.8212V64.3156H40.5327V72.9997Z" fill="#F2DCBB"/>
</g>
<defs>
<clipPath id="clip0_179_9">
<rect width="46" height="46" fill="white" transform="translate(27 27)"/>
</clipPath>
</defs>
</svg>
