<svg width="100" height="100" viewBox="0 0 100 100" fill="none" xmlns="http://www.w3.org/2000/svg">
<circle cx="50" cy="50" r="47.5" stroke="#F2DCBB" stroke-width="5"/>
<g clip-path="url(#clip0_166_13)">
<path fill-rule="evenodd" clip-rule="evenodd" d="M72.4866 69.2866H69.0236V74.0335C69.0236 75.6767 67.7022 77.0003 66.0618 77.0003H61.9609C60.3206 77.0003 58.9992 75.6767 58.9992 74.0335V69.3323H40.9097V74.0335C40.9097 75.6767 39.5883 77.0003 37.9479 77.0003H33.847C32.2067 77.0003 30.8853 75.6767 30.8853 74.0335V69.3323H27.4679V31.9049C27.4679 28.436 29.4727 25.9256 33.5281 24.3738C41.5476 21.2244 58.4068 21.2244 66.4719 24.3738C70.5273 25.9256 72.5321 28.436 72.5321 31.9049V69.2866H72.4866ZM76.0407 40.4401H74.3092V50.2991H76.0407C77.1343 50.2991 78 49.4318 78 48.3364V42.4028C78 41.3074 77.1343 40.4401 76.0407 40.4401ZM23.9593 40.4401H25.6908V50.2991H23.9593C22.8657 50.2991 22 49.4318 22 48.3364V42.4028C22 41.3074 22.8657 40.4401 23.9593 40.4401ZM43.1424 25.9256H56.8576C57.2677 25.9256 57.5867 26.2451 57.5867 26.6559V29.0294C57.5867 29.4401 57.2677 29.7596 56.8576 29.7596H43.1424C42.7323 29.7596 42.4133 29.4401 42.4133 29.0294V26.6559C42.4133 26.2451 42.7323 25.9256 43.1424 25.9256ZM32.4345 32.5895H67.3832C67.8389 32.5895 68.249 33.0003 68.249 33.4567V52.992C68.249 53.4484 67.8389 53.8592 67.3832 53.8592H32.4345C31.9788 53.8592 31.5688 53.4484 31.5688 52.992V33.4567C31.5688 33.0003 31.9333 32.5895 32.4345 32.5895ZM66.9276 60.7513C66.9276 59.8841 66.6086 59.1082 66.0163 58.5148C65.4239 57.9215 64.6493 57.602 63.7836 57.602C62.9178 57.602 62.1888 57.9215 61.5509 58.5148C60.9129 59.1082 60.6395 59.8841 60.6395 60.7513C60.6395 61.6186 60.9585 62.3489 61.5509 62.9422C62.1888 63.5356 62.9178 63.8551 63.7836 63.8551C64.6493 63.8551 65.4239 63.5356 66.0163 62.9422C66.6542 62.3489 66.9276 61.6186 66.9276 60.7513ZM39.3605 60.7513C39.3605 59.8841 39.0415 59.1082 38.4491 58.5148C37.8568 57.9215 37.0822 57.602 36.2164 57.602C35.3507 57.602 34.5761 57.9215 33.9837 58.5148C33.3914 59.1082 33.0724 59.8841 33.0724 60.7513C33.0724 61.6186 33.3458 62.3489 33.9837 62.9422C34.5761 63.5356 35.3507 63.8551 36.2164 63.8551C37.1277 63.8551 37.8568 63.5356 38.4491 62.9422C39.0415 62.3489 39.3605 61.6186 39.3605 60.7513Z" fill="#F2DCBB"/>
</g>
<defs>
<clipPath id="clip0_166_13">
<rect width="56" height="55" fill="white" transform="translate(22 22)"/>
</clipPath>
</defs>
</svg>
