<svg width="100" height="100" viewBox="0 0 100 100" fill="none" xmlns="http://www.w3.org/2000/svg">
<circle cx="50" cy="50" r="47.5" stroke="#F2DCBB" stroke-width="5"/>
<path fill-rule="evenodd" clip-rule="evenodd" d="M30.5176 57.4666L48.9701 38.988C49.9453 38.0118 50.0684 37.9708 51.0801 38.988L69.4824 57.4666V76H55.8106V63.4787C55.8093 63.0714 55.6472 62.6811 55.3594 62.393C55.0716 62.105 54.6817 61.9427 54.2747 61.9415H45.7344C45.3274 61.9427 44.9375 62.105 44.6497 62.393C44.362 62.6811 44.1998 63.0714 44.1986 63.4787V76H30.5267V57.4666H30.5176ZM49.4212 24.4003L22 50.1728L28.763 53.7262L48.1315 34.1756C49.7904 32.5061 49.8086 32.4696 51.4538 34.1026L71.237 53.7171L78 50.1637L50.5378 24.3592C50.0456 23.9031 49.9727 23.8438 49.4212 24.4003Z" fill="#F2DCBB"/>
</svg>
