<svg width="100" height="100" viewBox="0 0 100 100" fill="none" xmlns="http://www.w3.org/2000/svg">
<circle cx="50" cy="50" r="47.5" stroke="#F2DCBB" stroke-width="5"/>
<path fill-rule="evenodd" clip-rule="evenodd" d="M61.8834 42.5782C64.2807 43.2345 66.801 43.411 69.4398 43.1123C70.087 43.0398 70.7205 42.9539 71.3358 42.8724C74.2799 42.4922 76.741 42.275 77.6161 44.4655C79.1611 48.335 75.6654 56.7168 73.8242 60.1066C70.0323 67.0899 62.4759 74.9015 53.7345 72.5843C52.3718 72.2222 51.1458 71.6338 50.052 70.8373C52.9232 69.2487 55.1929 66.8093 56.9476 63.94L56.943 63.949C59.117 64.0667 61.3775 65.2072 63.4466 66.4111C63.597 63.7001 60.9582 61.8989 58.6065 60.7765C60.4933 56.572 61.4914 51.8516 61.8014 47.6381C61.8925 46.3346 61.9426 44.556 61.8834 42.5782ZM23.1898 35.9479C23.9007 35.2781 24.9763 35.1016 26.1978 35.1785C28.4902 35.3188 30.8601 36.0203 33.0842 36.6177C37.9198 37.9121 42.6505 37.4912 47.2582 35.3777C47.878 35.0925 48.4842 34.7984 49.0721 34.5178C51.8796 33.1691 54.2677 32.1417 55.8674 34.0426C58.6977 37.4007 58.0004 46.9139 57.2939 50.9012C55.8355 59.1155 50.8997 69.3981 41.3972 69.9548C36.3565 70.249 32.0588 67.4339 28.358 62.1161C26.0018 58.4955 24.3018 54.7752 23.2627 50.9509C22.5153 48.163 20.8791 38.1339 23.1898 35.9479ZM27.8977 48.5251C27.0272 48.2988 26.5259 48.0182 26.3573 47.6878C25.6873 46.3663 31.2156 43.0308 35.1169 46.0948C40.6634 50.3807 29.8666 49.1044 27.8977 48.5251ZM36.8715 61.4191C35.3995 60.3737 34.611 59.0838 34.1826 57.3368C39.0455 59.7808 43.5985 59.6043 47.837 56.2416C47.6684 57.7306 47.1807 59.0657 46.3421 60.2379C43.8674 63.7001 40.2487 63.8133 36.8715 61.4191ZM52.5678 46.6062C53.3836 46.226 53.8256 45.8594 53.9305 45.5019C54.3498 44.0808 48.3019 41.7952 45.025 45.5155C40.3535 50.7337 50.7402 47.5294 52.5678 46.6062ZM63.3919 52.0417C65.6889 50.2132 68.8337 50.5844 71.0213 52.372C71.5773 52.8291 73.1041 54.1597 72.2245 54.8884C71.9829 55.0875 71.5819 55.2007 71.0258 55.2278C69.6677 55.3817 67.6897 55.1011 66.1128 54.4539C64.8731 53.9561 63.9343 53.2908 63.3919 52.0417Z" fill="#F2DCBB"/>
</svg>
