<svg width="100" height="100" viewBox="0 0 100 100" fill="none" xmlns="http://www.w3.org/2000/svg">
<g clip-path="url(#clip0_166_12)">
<path fill-rule="evenodd" clip-rule="evenodd" d="M28.0612 33H78V59.7049L74.6595 60.2028L74.304 40.7179V40.4642C74.2581 39.5684 73.8925 38.7218 73.2775 38.087C72.6626 37.4523 71.8417 37.0743 70.9727 37.0257H28.1341L28.0612 33ZM71.7201 40.2951V67H22V40.2951H71.7201ZM42.4167 51.0193C42.9373 49.946 43.7551 49.0558 44.7665 48.4613C45.7779 47.8669 46.9376 47.5948 48.0989 47.6796C49.2603 47.7644 50.3712 48.2021 51.2913 48.9375C52.2113 49.673 52.8992 50.673 53.268 51.8113C53.6367 52.9496 53.6698 54.1751 53.363 55.3327C53.0562 56.4904 52.4233 57.5283 51.5444 58.3153C50.6654 59.1023 49.5798 59.6031 48.4248 59.7543C47.2698 59.9054 46.0972 59.7003 45.0553 59.1647C44.3629 58.8088 43.7454 58.3157 43.2379 57.7136C42.7305 57.1115 42.3432 56.4122 42.0982 55.6557C41.8531 54.8992 41.7551 54.1004 41.8098 53.3049C41.8644 52.5093 42.0706 51.7327 42.4167 51.0193ZM30.39 44.2363L63.2572 44.4852C63.274 45.5305 63.6921 46.5264 64.4199 47.2545C65.1477 47.9827 66.1258 48.3838 67.14 48.37L67.2949 58.9298C66.2804 58.9471 65.314 59.3789 64.6082 60.1302C63.9023 60.8815 63.5148 61.891 63.5306 62.9367L30.6589 62.6878C30.6421 61.6416 30.2233 60.6451 29.4946 59.9168C28.7658 59.1885 27.7865 58.7879 26.7715 58.803L26.6165 48.2432C27.6331 48.2271 28.602 47.7963 29.311 47.0453C30.02 46.2942 30.4113 45.2841 30.3991 44.2363H30.39Z" fill="#F2DCBB"/>
</g>
<circle cx="50" cy="50" r="47.5" stroke="#F2DCBB" stroke-width="5"/>
<defs>
<clipPath id="clip0_166_12">
<rect width="56" height="34" fill="white" transform="translate(22 33)"/>
</clipPath>
</defs>
</svg>
