<svg width="100" height="100" viewBox="0 0 100 100" fill="none" xmlns="http://www.w3.org/2000/svg">
<path fill-rule="evenodd" clip-rule="evenodd" d="M33.4434 68.7028V50.6134H41.3958C44.7819 51.2245 48.1361 53.0903 51.5085 55.278H57.6836C60.4818 55.4506 61.9447 58.352 59.2285 60.2552C57.0638 61.8831 54.2155 61.7898 51.2715 61.5239C49.2526 61.4213 49.166 64.1921 51.2715 64.2061C52.0052 64.2667 52.8027 64.0895 53.4954 64.0895C57.1413 64.0895 60.1628 63.3711 62.0039 60.4137L62.9154 58.2027L72.1211 53.5381C76.7194 51.9895 79.9915 56.9106 76.6009 60.3345C70.1917 65.1286 63.3345 69.2614 56.1296 72.6724C51.0573 75.8303 45.985 75.723 40.9264 72.6724L33.4434 68.7028ZM45.0645 25L74.7415 34.1706L70.2799 50.1143L68.1927 49.7878L71.3828 38.1262L71.4284 37.977C71.5696 37.445 71.4993 36.8775 71.2329 36.3985C70.9664 35.9195 70.5255 35.5679 70.0065 35.4207L69.0039 35.1409V35.1082L64.2826 33.8301L44.39 27.4023L45.0645 25ZM40.1562 28.2186L69.8516 37.3846L65.3717 53.3282L35.6947 44.1622L40.1562 28.2186ZM50.4967 38.3688C50.9963 37.8245 51.6425 37.4442 52.3534 37.276C53.0643 37.1078 53.8079 37.1593 54.4902 37.424C55.1725 37.6886 55.7627 38.1545 56.1861 38.7627C56.6096 39.3709 56.8472 40.094 56.8689 40.8405C56.8906 41.5869 56.6954 42.3232 56.3081 42.9561C55.9208 43.589 55.3587 44.09 54.693 44.3957C54.0273 44.7015 53.2879 44.7981 52.5685 44.6735C51.8491 44.5489 51.182 44.2087 50.6517 43.6958C49.9422 43.0097 49.5275 42.0636 49.4985 41.0651C49.4694 40.0665 49.8284 39.0969 50.4967 38.3688ZM44.4857 32.1089L64.123 38.3408C63.9494 38.963 64.0229 39.6303 64.3276 40.1973C64.6324 40.7643 65.1436 41.1851 65.75 41.3681L64.0091 47.6747C63.7069 47.5864 63.3906 47.5599 63.0784 47.5968C62.7662 47.6336 62.4641 47.7331 62.1894 47.8895C61.9148 48.0458 61.6729 48.2561 61.4776 48.5082C61.2824 48.7602 61.1375 49.0492 61.0514 49.3586L41.4095 43.1267C41.5828 42.5032 41.508 41.8349 41.2015 41.2677C40.8949 40.7004 40.3815 40.2804 39.7734 40.0994L41.5326 33.7928C41.8351 33.8818 42.1518 33.9088 42.4645 33.8723C42.7773 33.8358 43.0799 33.7365 43.3551 33.58C43.6303 33.4236 43.8726 33.2131 44.0682 32.9607C44.2637 32.7082 44.4087 32.4188 44.4948 32.1089H44.4857ZM22 48.8922H31.0508V70.522H22V48.8922Z" fill="#F2DCBB"/>
<circle cx="50" cy="50" r="47.5" stroke="#F2DCBB" stroke-width="5"/>
</svg>
