<svg width="100" height="100" viewBox="0 0 100 100" fill="none" xmlns="http://www.w3.org/2000/svg">
<path fill-rule="evenodd" clip-rule="evenodd" d="M27.487 41.3505H31.7845L42.3073 29.8291C43.2415 28.8044 44.8639 28.7153 45.9076 29.6286C46.9557 30.542 47.0469 32.128 46.1126 33.1528L38.6296 41.3505H61.5618L54.0788 33.1528C53.1445 32.128 53.2357 30.542 54.2839 29.6286C55.332 28.7153 56.9499 28.8044 57.8887 29.8291L68.4069 41.3505H72.5176H72.5723H76.4323C77.2982 41.3505 78.0046 42.0411 78.0046 42.8876V47.2226C78.0046 48.0691 77.2982 48.7596 76.4323 48.7596H73.0918L71.3737 69.9356C71.3281 70.5193 70.8815 71.0004 70.2845 71.0004H29.7201C29.123 71.0004 28.6764 70.5193 28.6309 69.9356L26.9128 48.7596H23.5723C22.7064 48.7596 22 48.0691 22 47.2226V42.8876C22 42.0411 22.7064 41.3505 23.5723 41.3505H27.4323H27.487ZM57.3965 49.5928H62.3685V63.6403H57.3965V49.5928ZM47.7259 49.5928H52.6934V63.6403H47.7259V49.5928ZM38.0553 49.5928H43.0273V63.6403H38.0553V49.5928Z" fill="#F2DCBB"/>
<circle cx="50" cy="50" r="47.5" stroke="#F2DCBB" stroke-width="5"/>
</svg>
