<svg width="2000" height="2000" viewBox="0 0 2000 2000" fill="none" xmlns="http://www.w3.org/2000/svg">
<path d="M52 30C52 13.4314 65.4315 0 82 0H1894C1910.57 0 1924 13.4315 1924 30V1970C1924 1986.57 1910.57 2000 1894 2000H82C65.4315 2000 52 1986.57 52 1970V30Z" fill="#141516"/>
<path d="M524.855 1373.09C592.341 1449.36 712.361 1522.62 829.619 1524.92C946.877 1527.22 1073.68 1488.85 1189.07 1416.16C1304.46 1343.47 1401.53 1240.8 1464.23 1125.13C1526.94 1009.46 1551.53 887.714 1533.93 780.006C1516.33 672.298 1457.61 585.081 1367.46 532.769C1277.31 480.457 1161.14 466.183 1038.14 492.305C915.145 518.427 792.686 583.382 691.005 676.435C589.324 769.487 514.509 885.066 478.926 1004.07L997.681 1002.29L524.855 1373.09Z" fill="url(#paint0_linear_4_17)"/>
<path fill-rule="evenodd" clip-rule="evenodd" d="M1362.28 1269.49C1340.75 1273.14 1317.72 1275.28 1293.16 1275.91L1292.39 1338.88C1277.86 1351.65 1262.87 1363.93 1247.45 1375.67L1247.67 1275.35C1198.34 1272.79 1154.47 1263.73 1116.05 1248.17C1070.1 1229.48 1034.34 1200.67 1008.78 1161.77C1003.67 1153.87 999.069 1145.53 994.977 1136.75L1151.51 1011.32L1154.04 1011.32C1155.22 1033.63 1160.7 1052.38 1170.46 1067.56C1180.22 1082.75 1193.92 1094.24 1211.56 1102.06C1222.46 1106.82 1234.62 1110.13 1248.03 1111.98L1248.32 978.15L1191.56 965.693C1128.45 951.763 1078.67 928.44 1042.21 895.723C1005.98 862.768 987.951 817.802 988.114 760.826C987.826 714.533 999.839 674.041 1024.15 639.351C1048.7 604.423 1082.65 577.199 1126 557.68C1162.6 541.29 1203.7 531.757 1249.3 529.08L1249.39 488.679C1267.72 492.393 1285.51 497.235 1302.68 503.192L1302.36 528.989C1331.01 530.557 1357.56 534.792 1382.02 541.693C1443.29 581.355 1488.59 638.069 1514.49 706.742L1407.22 786.224C1404.45 750.084 1385.7 718.303 1362.56 703.831C1345.9 693.412 1323.49 688.47 1300.42 686.579L1298.79 818.801L1344.49 828.764C1383.93 837.263 1417.69 848.498 1445.78 862.471C1473.86 876.443 1496.85 892.915 1514.73 911.885C1521.19 918.655 1527.04 925.735 1532.26 933.126C1521.44 996.752 1498.54 1061.85 1464.23 1125.13C1436.51 1176.29 1402.06 1224.89 1362.28 1269.49ZM1295.17 1112.8C1307.27 1111.61 1317.91 1109.29 1327.08 1105.83C1340.99 1100.59 1351.54 1093.34 1358.72 1084.07C1365.89 1074.8 1369.59 1064.24 1369.81 1052.37C1369.57 1041.21 1365.96 1031.48 1358.99 1023.18C1352.25 1014.64 1341.11 1007.06 1325.56 1000.43C1317.42 996.837 1307.8 993.377 1296.68 990.049L1295.17 1112.8ZM1248.7 806.233L1248.96 687.462C1240.86 688.882 1233.48 691.259 1226.07 695.054C1211.56 702.477 1204.07 711.194 1199.26 717.837C1194.45 724.479 1189.9 738.243 1189.9 746.336C1189.9 754.429 1190.97 763.072 1194.45 770.19C1198.17 777.07 1203.98 783.354 1211.87 789.042C1219.77 794.493 1229.86 799.466 1242.16 803.961C1244.27 804.732 1246.45 805.49 1248.7 806.233Z" fill="#141516"/>
<defs>
<linearGradient id="paint0_linear_4_17" x1="1533.5" y1="632" x2="693.091" y2="1508.74" gradientUnits="userSpaceOnUse">
<stop offset="0.105158" stop-color="#FFC771"/>
<stop offset="0.448422" stop-color="#E6910E" stop-opacity="0.69"/>
<stop offset="0.928011" stop-color="#1E1E1E" stop-opacity="0.05"/>
</linearGradient>
</defs>
</svg>
