<svg width="28" height="28" viewBox="0 0 38 38" fill="none" xmlns="http://www.w3.org/2000/svg">
<path d="M23.75 31.6667H7.91667C5.81781 31.6642 3.80563 30.8293 2.32151 29.3452C0.837396 27.861 0.00251411 25.8489 0 23.75L0 7.91667C0.00251411 5.81781 0.837396 3.80563 2.32151 2.32151C3.80563 0.837396 5.81781 0.00251411 7.91667 0L23.75 0C25.8489 0.00251411 27.861 0.837396 29.3452 2.32151C30.8293 3.80563 31.6642 5.81781 31.6667 7.91667V23.75C31.6642 25.8489 30.8293 27.861 29.3452 29.3452C27.861 30.8293 25.8489 31.6642 23.75 31.6667ZM7.91667 3.16667C6.65689 3.16667 5.44871 3.66711 4.55791 4.55791C3.66711 5.44871 3.16667 6.65689 3.16667 7.91667V23.75C3.16667 25.0098 3.66711 26.218 4.55791 27.1088C5.44871 27.9996 6.65689 28.5 7.91667 28.5H23.75C25.0098 28.5 26.218 27.9996 27.1088 27.1088C27.9996 26.218 28.5 25.0098 28.5 23.75V7.91667C28.5 6.65689 27.9996 5.44871 27.1088 4.55791C26.218 3.66711 25.0098 3.16667 23.75 3.16667H7.91667ZM38 30.0833V9.5C38 9.08007 37.8332 8.67735 37.5363 8.38041C37.2393 8.08348 36.8366 7.91667 36.4167 7.91667C35.9967 7.91667 35.594 8.08348 35.2971 8.38041C35.0001 8.67735 34.8333 9.08007 34.8333 9.5V30.0833C34.8333 31.3431 34.3329 32.5513 33.4421 33.4421C32.5513 34.3329 31.3431 34.8333 30.0833 34.8333H9.5C9.08007 34.8333 8.67735 35.0001 8.38041 35.2971C8.08348 35.594 7.91667 35.9967 7.91667 36.4167C7.91667 36.8366 8.08348 37.2393 8.38041 37.5363C8.67735 37.8332 9.08007 38 9.5 38H30.0833C32.1822 37.9975 34.1944 37.1626 35.6785 35.6785C37.1626 34.1944 37.9975 32.1822 38 30.0833Z" fill="#F2DCBB"/>
</svg>
