<svg width="165" height="165" viewBox="0 0 240 240" fill="none" xmlns="http://www.w3.org/2000/svg">
<circle cx="120" cy="120" r="115" stroke="#A29581" stroke-width="10"/>
<g filter="url(#filter0_d_247_15)">
<path d="M117.212 81.2881C117.212 80.8457 117.301 80.4215 117.462 80.0324C117.63 79.6272 117.874 79.2645 118.175 78.9632C118.77 78.3681 119.593 78 120.5 78C120.944 78 121.369 78.0892 121.758 78.2506C121.766 78.254 121.774 78.258 121.783 78.2621C122.177 78.4296 122.531 78.6694 122.825 78.9639C123.42 79.5583 123.788 80.381 123.788 81.2888C123.788 81.3091 123.787 81.3293 123.784 81.3489V116.216H158.65C158.67 116.214 158.692 116.212 158.711 116.212C159.154 116.212 159.579 116.301 159.968 116.462C159.978 116.466 159.985 116.47 159.993 116.474C160.388 116.641 160.741 116.881 161.035 117.176C161.631 117.77 162 118.593 162 119.5C162 119.942 161.91 120.367 161.749 120.756C161.582 121.161 161.338 121.524 161.035 121.825C160.735 122.126 160.374 122.369 159.968 122.538V122.538C159.579 122.699 159.154 122.788 158.711 122.788C158.692 122.788 158.67 122.787 158.65 122.784L123.784 122.785V157.651C123.787 157.671 123.788 157.692 123.788 157.712C123.788 158.155 123.699 158.581 123.538 158.969C123.534 158.978 123.53 158.986 123.526 158.994C123.358 159.388 123.119 159.742 122.825 160.036C122.229 160.632 121.407 161 120.5 161C120.058 161 119.633 160.911 119.244 160.749C118.839 160.582 118.476 160.338 118.175 160.036C117.874 159.736 117.63 159.374 117.462 158.969C117.301 158.581 117.211 158.155 117.211 157.712C117.211 157.692 117.212 157.671 117.215 157.651V122.785H82.3489C82.3293 122.787 82.309 122.789 82.2881 122.789C81.8463 122.789 81.4215 122.7 81.0324 122.538C80.6272 122.371 80.2644 122.127 79.9632 121.825C79.6626 121.524 79.4188 121.163 79.2506 120.758C79.0892 120.369 79 119.944 79 119.5C79 119.058 79.0892 118.633 79.2506 118.244C79.4188 117.839 79.6626 117.476 79.9639 117.175C80.5589 116.58 81.381 116.212 82.2888 116.212C82.3097 116.212 82.33 116.213 82.3496 116.216H117.216V81.3489C117.214 81.3286 117.212 81.3084 117.212 81.2881Z" fill="#A29581"/>
</g>
<defs>
<filter id="filter0_d_247_15" x="73" y="74" width="95" height="95" filterUnits="userSpaceOnUse" color-interpolation-filters="sRGB">
<feFlood flood-opacity="0" result="BackgroundImageFix"/>
<feColorMatrix in="SourceAlpha" type="matrix" values="0 0 0 0 0 0 0 0 0 0 0 0 0 0 0 0 0 0 127 0" result="hardAlpha"/>
<feOffset dy="2"/>
<feGaussianBlur stdDeviation="3"/>
<feComposite in2="hardAlpha" operator="out"/>
<feColorMatrix type="matrix" values="0 0 0 0 0 0 0 0 0 0 0 0 0 0 0 0 0 0 0.25 0"/>
<feBlend mode="normal" in2="BackgroundImageFix" result="effect1_dropShadow_247_15"/>
<feBlend mode="normal" in="SourceGraphic" in2="effect1_dropShadow_247_15" result="shape"/>
</filter>
</defs>
</svg>
