<svg xmlns="http://www.w3.org/2000/svg" width="1024" height="1024" fill="none"><g clip-path="url(#a)"><path fill="#141516" d="M0 30C0 13.431 13.431 0 30 0h964c16.57 0 30 13.431 30 30v964c0 16.57-13.43 30-30 30H30c-16.569 0-30-13.43-30-30V30Z"/><path fill="url(#b)" d="M-77.145 992.085C-9.66 1068.36 110.36 1141.62 227.619 1143.92c117.258 2.3 244.062-36.07 359.452-108.76 115.39-72.691 212.459-175.355 275.164-291.025 62.704-115.67 87.291-237.421 69.695-345.129-17.596-107.708-76.321-194.925-166.468-247.237-90.147-52.312-206.321-66.587-329.319-40.464-122.998 26.122-245.457 91.077-347.138 184.13-101.68 93.052-176.496 208.631-212.079 327.633l518.755-1.783-472.826 370.8Z"/><path fill="#141516" fill-rule="evenodd" d="M760.277 888.489c-21.523 3.647-44.562 5.787-69.116 6.421l-.775 62.966a817.427 817.427 0 0 1-44.939 36.79l.22-100.313c-49.322-2.563-93.194-11.623-131.615-27.179-45.951-18.699-81.707-47.5-107.27-86.402-5.111-7.897-9.713-16.24-13.805-25.027l156.531-125.422 2.53-.003c1.187 22.314 6.661 41.062 16.421 56.244 9.761 15.182 23.461 26.679 41.099 34.492 10.905 4.768 23.061 8.075 36.467 9.922l.294-133.828-56.759-12.457c-63.11-13.93-112.894-37.253-149.351-69.97-36.226-32.955-54.258-77.921-54.095-134.897-.288-46.293 11.724-86.785 36.038-121.475 24.545-34.928 58.495-62.152 101.847-81.671 36.597-16.39 77.698-25.923 123.305-28.6l.089-40.401c18.326 3.714 36.119 8.556 53.284 14.513l-.317 25.797c28.649 1.568 55.201 5.803 79.656 12.704 61.275 39.662 106.578 96.376 132.478 165.048l-107.277 79.483c-2.767-36.14-21.52-67.921-44.657-82.393-16.659-10.419-39.067-15.361-62.141-17.253l-1.629 132.223 45.697 9.963c39.444 8.499 73.208 19.734 101.292 33.707 28.084 13.972 51.068 30.444 68.952 49.414 6.462 6.77 12.304 13.85 17.526 21.241-10.822 63.626-33.717 128.727-68.022 192.009-27.729 51.15-62.177 99.757-101.958 144.354ZM693.17 731.797c12.1-1.188 22.736-3.509 31.909-6.964 13.911-5.24 24.457-12.493 31.636-21.761 7.18-9.267 10.878-19.836 11.096-31.706-.246-11.158-3.853-20.887-10.822-29.188-6.737-8.538-17.881-16.121-33.43-22.749-8.134-3.592-17.76-7.052-28.877-10.38l-1.512 122.748Zm-46.474-306.565.261-118.771c-8.101 1.421-15.473 3.798-22.889 7.593-14.507 7.423-21.998 16.14-26.807 22.783-4.808 6.642-9.36 20.406-9.359 28.499 0 8.093 1.064 16.736 4.552 23.854 3.72 6.88 9.526 13.164 17.42 18.852 7.893 5.45 17.989 10.424 30.289 14.919a223.21 223.21 0 0 0 6.533 2.271Z" clip-rule="evenodd"/></g><defs><linearGradient id="b" x1="931.5" x2="91.091" y1="251" y2="1127.74" gradientUnits="userSpaceOnUse"><stop offset=".105" stop-color="#FFC771"/><stop offset=".448" stop-color="#E6910E" stop-opacity=".69"/><stop offset=".928" stop-color="#1E1E1E" stop-opacity=".05"/></linearGradient><clipPath id="a"><rect width="1024" height="1024" fill="#fff" rx="200"/></clipPath></defs></svg>