<svg width="70" height="70" viewBox="0 0 88 88" fill="none" xmlns="http://www.w3.org/2000/svg">
<circle cx="44" cy="44" r="42.5" fill="#363636" stroke="url(#paint0_linear_237_13)" stroke-width="3"/>
<g filter="url(#filter0_d_237_13)">
<path d="M42.4006 19.0996C42.4006 18.8171 42.4575 18.5463 42.5602 18.2978C42.6676 18.039 42.8233 17.8074 43.0156 17.6151C43.3952 17.2351 43.9205 17 44.4998 17C44.7836 17 45.0549 17.0569 45.3033 17.16C45.3085 17.1622 45.3132 17.1648 45.3193 17.1674C45.5712 17.2743 45.7967 17.4274 45.9848 17.6155C46.3648 17.995 46.5998 18.5204 46.5998 19.1001C46.5998 19.113 46.599 19.126 46.5973 19.1385V41.4029H68.8611C68.8736 41.4017 68.8874 41.4004 68.8999 41.4004C69.1829 41.4004 69.4542 41.4573 69.7026 41.5604C69.7087 41.5625 69.7134 41.5651 69.7186 41.5677C69.9705 41.6747 70.196 41.8278 70.3841 42.0158C70.7641 42.3954 71 42.9207 71 43.5C71 43.7821 70.9426 44.0534 70.84 44.3018C70.733 44.5606 70.5773 44.7922 70.3841 44.9846C70.1922 45.1765 69.9614 45.3322 69.7026 45.4396V45.4401C69.4542 45.5427 69.1829 45.5996 68.8999 45.5996C68.8874 45.5996 68.8736 45.5988 68.8611 45.5971L46.5973 45.5975V67.8615C46.599 67.874 46.5998 67.8874 46.5998 67.9004C46.5998 68.1833 46.5425 68.455 46.4398 68.703C46.4372 68.7091 46.4346 68.7138 46.4321 68.719C46.3251 68.9709 46.1724 69.1965 45.9848 69.3845C45.6039 69.7649 45.079 70 44.4998 70C44.2177 70 43.9464 69.9431 43.698 69.84C43.4392 69.733 43.2076 69.5773 43.0152 69.3845C42.8233 69.193 42.6676 68.9618 42.5602 68.703C42.4571 68.455 42.3997 68.1833 42.3997 67.9004C42.3997 67.8874 42.4006 67.874 42.4023 67.8615V45.5975H20.1384C20.1259 45.5992 20.113 45.6001 20.0996 45.6001C19.8175 45.6001 19.5463 45.5431 19.2978 45.4401C19.039 45.3331 18.8074 45.1774 18.6151 44.9846C18.4231 44.7927 18.2674 44.5619 18.16 44.3031C18.0569 44.0547 18 43.7834 18 43.5C18 43.2175 18.0569 42.9466 18.16 42.6982C18.2674 42.4394 18.4231 42.2078 18.6155 42.0154C18.9955 41.6354 19.5204 41.4004 20.1001 41.4004C20.1134 41.4004 20.1264 41.4012 20.1389 41.4029H42.4032V19.1385C42.4015 19.1255 42.4006 19.1126 42.4006 19.0996Z" fill="url(#paint1_linear_237_13)"/>
</g>
<defs>
<filter id="filter0_d_237_13" x="12" y="13" width="65" height="65" filterUnits="userSpaceOnUse" color-interpolation-filters="sRGB">
<feFlood flood-opacity="0" result="BackgroundImageFix"/>
<feColorMatrix in="SourceAlpha" type="matrix" values="0 0 0 0 0 0 0 0 0 0 0 0 0 0 0 0 0 0 127 0" result="hardAlpha"/>
<feOffset dy="2"/>
<feGaussianBlur stdDeviation="3"/>
<feComposite in2="hardAlpha" operator="out"/>
<feColorMatrix type="matrix" values="0 0 0 0 0 0 0 0 0 0 0 0 0 0 0 0 0 0 0.25 0"/>
<feBlend mode="normal" in2="BackgroundImageFix" result="effect1_dropShadow_237_13"/>
<feBlend mode="normal" in="SourceGraphic" in2="effect1_dropShadow_237_13" result="shape"/>
</filter>
<linearGradient id="paint0_linear_237_13" x1="88" y1="44" x2="2.5" y2="45" gradientUnits="userSpaceOnUse">
<stop stop-color="#F5A932"/>
<stop offset="1" stop-color="#F2DCBB"/>
</linearGradient>
<linearGradient id="paint1_linear_237_13" x1="71" y1="44" x2="23" y2="44" gradientUnits="userSpaceOnUse">
<stop stop-color="#F5A932"/>
<stop offset="1" stop-color="#F2DCBB"/>
</linearGradient>
</defs>
</svg>
