<svg width="303" height="303" viewBox="0 0 503 503" fill="none" xmlns="http://www.w3.org/2000/svg">
<g clip-path="url(#clip0_305_39)">
<path d="M398.208 176.553V146.708C398.208 107.799 382.751 70.483 355.238 42.9699C327.725 15.4567 290.409 0 251.5 0C212.59 0 175.275 15.4567 147.761 42.9699C120.248 70.483 104.792 107.799 104.792 146.708V176.553C86.1252 184.7 70.2374 198.109 59.0709 215.142C47.9044 232.174 41.9433 252.092 41.9165 272.458V398.208C41.9498 425.991 53.001 452.625 72.646 472.271C92.2911 491.916 118.926 502.967 146.708 503H356.292C384.074 502.967 410.709 491.916 430.354 472.271C449.999 452.625 461.05 425.991 461.083 398.208V272.458C461.056 252.092 455.095 232.174 443.929 215.142C432.762 198.109 416.875 184.7 398.208 176.553ZM146.708 146.708C146.708 118.916 157.749 92.2617 177.401 72.6094C197.053 52.9572 223.707 41.9167 251.5 41.9167C279.292 41.9167 305.947 52.9572 325.599 72.6094C345.251 92.2617 356.292 118.916 356.292 146.708V167.667H146.708V146.708ZM419.167 398.208C419.167 414.884 412.542 430.876 400.751 442.668C388.96 454.459 372.967 461.083 356.292 461.083H146.708C130.033 461.083 114.04 454.459 102.249 442.668C90.4575 430.876 83.8332 414.884 83.8332 398.208V272.458C83.8332 255.783 90.4575 239.79 102.249 227.999C114.04 216.208 130.033 209.583 146.708 209.583H356.292C372.967 209.583 388.96 216.208 400.751 227.999C412.542 239.79 419.167 255.783 419.167 272.458V398.208Z" fill="#1D1E1E"/>
<path d="M251.5 293.417C245.941 293.417 240.611 295.625 236.68 299.555C232.75 303.486 230.542 308.817 230.542 314.375V356.292C230.542 361.85 232.75 367.181 236.68 371.112C240.611 375.042 245.941 377.25 251.5 377.25C257.058 377.25 262.389 375.042 266.32 371.112C270.25 367.181 272.458 361.85 272.458 356.292V314.375C272.458 308.817 270.25 303.486 266.32 299.555C262.389 295.625 257.058 293.417 251.5 293.417Z" fill="#1D1E1E"/>
</g>
<defs>
<clipPath id="clip0_305_39">
<rect width="503" height="503" fill="white"/>
</clipPath>
</defs>
</svg>
