<svg width="165" height="165" viewBox="0 0 240 240" fill="none" xmlns="http://www.w3.org/2000/svg">
<path d="M240 120C240 53.8667 186.133 0 120 0C53.8667 0 0 53.8667 0 120C0 159.733 19.4667 195.2 49.6 217.067C50.1333 217.6 50.6667 217.867 51.2 218.133C70.6667 232 94.4 240 120 240C145.6 240 169.333 232 188.8 218.133C189.333 217.867 189.867 217.333 190.4 217.067C220.533 195.2 240 159.733 240 120ZM58.6667 210.4V205.333C58.6667 171.467 86.1333 144 120 144C153.867 144 181.333 171.467 181.333 205.333V210.4C163.733 222.4 142.667 229.333 120 229.333C97.3333 229.333 76.2667 222.4 58.6667 210.4ZM88 101.333C88 83.7333 102.4 69.3333 120 69.3333C137.6 69.3333 152 83.7333 152 101.333C152 118.933 137.6 133.333 120 133.333C102.4 133.333 88 118.933 88 101.333ZM192 202.133C190.667 171.733 170.667 146.4 143.2 137.067C154.933 129.6 162.667 116.267 162.667 101.333C162.667 77.8667 143.467 58.6667 120 58.6667C96.5333 58.6667 77.3333 77.8667 77.3333 101.333C77.3333 116.267 85.0667 129.6 96.8 137.067C69.3333 146.4 49.3333 172 48 202.133C25.0667 182.133 10.6667 152.8 10.6667 120C10.6667 59.7333 59.7333 10.6667 120 10.6667C180.267 10.6667 229.333 59.7333 229.333 120C229.333 152.8 214.933 182.133 192 202.133Z" fill="url(#paint0_linear_4_1581)"/>
<defs>
<linearGradient id="paint0_linear_4_1581" x1="120" y1="0" x2="120" y2="240" gradientUnits="userSpaceOnUse">
<stop stop-color="#F5A932"/>
<stop offset="1" stop-color="#F2DCBB"/>
</linearGradient>
</defs>
</svg>
